<svg width="40" height="40" viewBox="0 0 40 40" fill="none" xmlns="http://www.w3.org/2000/svg">
<path d="M17.5 2.5V7.5H22.5V2.5H25V7.5H27.5C28.1628 7.50076 28.7979 7.76472 29.2666 8.2334C29.7353 8.70207 29.9992 9.33719 30 10V12.5H32.5V15H30V20C29.9992 20.6628 29.7353 21.2979 29.2666 21.7666C28.7979 22.2353 28.1628 22.4992 27.5 22.5H26.25V25H32.5C33.1628 25.0008 33.7979 25.2647 34.2666 25.7334C34.7353 26.2021 34.9992 26.8372 35 27.5V37.5H32.5V27.5H7.5V37.5H5V27.5C5.00076 26.8372 5.26472 26.2021 5.7334 25.7334C6.20207 25.2647 6.83719 25.0008 7.5 25H13.75V22.5H12.5C11.8372 22.4992 11.2021 22.2353 10.7334 21.7666C10.2647 21.2979 10.0008 20.6628 10 20V15H7.5V12.5H10V10C10.0008 9.33719 10.2647 8.70207 10.7334 8.2334C11.2021 7.76472 11.8372 7.50076 12.5 7.5H15V2.5H17.5ZM16.25 22.5V25H23.75V22.5H16.25ZM12.5 10V20H27.5V10H12.5ZM17.5 15H15V12.5H17.5V15ZM25 15H22.5V12.5H25V15Z" fill="#005EE0"/>
</svg>
