<svg width="24" height="24" viewBox="0 0 24 24" fill="none" xmlns="http://www.w3.org/2000/svg">
<path d="M12.0001 1.5C14.7848 1.50004 17.4558 2.6061 19.4249 4.5752C21.394 6.54432 22.5001 9.21526 22.5001 12C22.5001 14.0765 21.8841 16.1064 20.7305 17.833C19.5768 19.5597 17.9363 20.9065 16.0176 21.7012C14.0992 22.4957 11.9878 22.703 9.95123 22.2979C7.91458 21.8927 6.04362 20.8931 4.57526 19.4248C3.10687 17.9564 2.10641 16.0855 1.70123 14.0488C1.29609 12.012 1.50417 9.90007 2.29889 7.98145C3.09359 6.063 4.43953 4.42323 6.16608 3.26953C7.89279 2.11578 9.92336 1.5 12.0001 1.5ZM15.4444 3.68555C13.7999 3.00437 11.99 2.82561 10.2442 3.17285C8.49841 3.52011 6.89446 4.37711 5.6358 5.63574C4.37714 6.8944 3.52019 8.49833 3.17291 10.2441C2.82565 11.99 3.00344 13.7998 3.68463 15.4443C4.36582 17.0889 5.52003 18.4945 7.00006 19.4834C8.48004 20.4722 10.2201 21 12.0001 21C14.387 21 16.6765 20.052 18.3643 18.3643C20.0521 16.6764 21.0001 14.3869 21.0001 12C21.0001 10.2201 20.4723 8.47999 19.4835 7C18.4946 5.52009 17.0887 4.36676 15.4444 3.68555ZM17.2501 9.31152L10.5001 16.0605L6.75006 12.3096L7.80963 11.25L10.5001 13.9395L16.1885 8.25L17.2501 9.31152Z" fill="black"/>
</svg>
