<svg width="40" height="40" viewBox="0 0 40 40" fill="none" xmlns="http://www.w3.org/2000/svg">
<path d="M28.0625 7.5C28.9726 7.49924 29.8737 7.68016 30.713 8.03218C31.5522 8.3842 32.3128 8.90022 32.95 9.55C34.263 10.883 34.999 12.6789 34.999 14.55C34.999 16.4211 34.263 18.217 32.95 19.55L20 32.6625L7.05002 19.55C5.737 18.217 5.00101 16.4211 5.00101 14.55C5.00101 12.6789 5.737 10.883 7.05002 9.55C7.68764 8.90069 8.44824 8.38494 9.28741 8.03287C10.1266 7.6808 11.0275 7.49947 11.9375 7.49947C12.8476 7.49947 13.7485 7.6808 14.5876 8.03287C15.4268 8.38494 16.1874 8.90069 16.825 9.55L20 12.8L23.1625 9.575C23.7978 8.91748 24.5592 8.39483 25.4011 8.0383C26.243 7.68177 27.1482 7.49869 28.0625 7.5ZM28.0625 5C26.8195 4.99895 25.5889 5.24607 24.4427 5.72688C23.2965 6.20769 22.2578 6.91251 21.3875 7.8L20 9.2L18.6125 7.8C17.7412 6.91411 16.7023 6.21051 15.5563 5.73024C14.4102 5.24997 13.1801 5.00262 11.9375 5.00262C10.6949 5.00262 9.4648 5.24997 8.31879 5.73024C7.17278 6.21051 6.13384 6.91411 5.26252 7.8C3.48987 9.60454 2.49664 12.033 2.49664 14.5625C2.49664 17.0921 3.48987 19.5205 5.26252 21.325L20 36.25L34.7375 21.325C36.5102 19.5205 37.5034 17.0921 37.5034 14.5625C37.5034 12.033 36.5102 9.60454 34.7375 7.8C33.8664 6.91363 32.8276 6.20956 31.6816 5.72883C30.5355 5.2481 29.3053 5.00035 28.0625 5Z" fill="#005EE0"/>
</svg>
