<svg width="40" height="40" viewBox="0 0 40 40" fill="none" xmlns="http://www.w3.org/2000/svg">
<path d="M14.5125 37.4C14.2567 37.292 14.0442 37.1019 13.9084 36.8597C13.7726 36.6175 13.7213 36.337 13.7625 36.0625L16.0375 21.25H10C9.80864 21.2551 9.61861 21.2162 9.44462 21.1363C9.27062 21.0564 9.11732 20.9375 8.99653 20.7889C8.87574 20.6404 8.7907 20.466 8.74796 20.2794C8.70523 20.0928 8.70594 19.8988 8.75005 19.7125L12.5 3.46246C12.566 3.1828 12.7264 2.93441 12.954 2.7591C13.1817 2.5838 13.4628 2.49228 13.75 2.49996H26.25C26.4368 2.49932 26.6213 2.54054 26.79 2.62057C26.9588 2.70061 27.1074 2.81743 27.225 2.96246C27.3444 3.10912 27.4288 3.28094 27.4721 3.46498C27.5155 3.64902 27.5164 3.84048 27.475 4.02496L25.3125 13.75H31.25C31.4843 13.7495 31.714 13.8149 31.9129 13.9386C32.1118 14.0624 32.272 14.2396 32.375 14.45C32.4646 14.6519 32.4991 14.8739 32.4749 15.0935C32.4508 15.3131 32.3689 15.5223 32.2375 15.7L15.9875 36.95C15.8777 37.1128 15.7311 37.2474 15.5595 37.343C15.3879 37.4385 15.1963 37.4923 15 37.5C14.8328 37.4968 14.6675 37.4629 14.5125 37.4ZM22.1875 16.25L24.6875 4.99996H14.75L11.575 18.75H18.9625L16.975 31.6L28.75 16.25H22.1875Z" fill="#005EE0"/>
</svg>
