<svg width="112" height="22" viewBox="0 0 112 22" fill="none" xmlns="http://www.w3.org/2000/svg">
<path d="M40.3164 9.84485V6.15303H42.305V0H50.9989V3.69182H46.5699V6.15303H50.0751V9.84485H46.5699V21.5356H42.305V9.84485H40.3164Z" fill="white"/>
<path d="M54.0252 19.5824C53.2409 18.8215 52.6209 17.9054 52.204 16.8916C51.787 15.8777 51.5821 14.788 51.6021 13.6906C51.5823 12.5933 51.7873 11.5036 52.2042 10.4898C52.6212 9.47598 53.2411 8.55988 54.0252 7.79881C54.8057 7.00998 55.7369 6.3892 56.7624 5.97412C57.7879 5.55903 58.8863 5.35828 59.991 5.38403C62.3911 5.38403 64.3634 6.18412 65.9078 7.7843C66.6679 8.56124 67.265 9.48465 67.6635 10.4994C68.062 11.5142 68.2538 12.5995 68.2273 13.6906V14.6136H56.0253C56.1756 15.6162 56.6597 16.5374 57.398 17.2257C58.086 17.9163 59.0174 18.3035 59.9881 18.3025C60.9908 18.3274 61.9711 18.0013 62.7623 17.3795C63.0613 17.1202 63.3101 16.8073 63.4962 16.4566H68.0719C67.7426 17.4689 67.225 18.4086 66.5467 19.2255C64.9178 21.0714 62.7316 21.9943 59.9881 21.9943C58.8841 22.0201 57.7864 21.8196 56.7614 21.405C55.7365 20.9904 54.8056 20.3704 54.0252 19.5824ZM56.1778 11.9985H63.6602C63.4996 11.1827 63.062 10.4489 62.4227 9.92335C61.7452 9.35115 60.883 9.0496 59.9996 9.07585C59.1131 9.05006 58.2466 9.34444 57.5563 9.90593C56.8939 10.4435 56.4125 11.1744 56.1778 11.9985Z" fill="white"/>
<path d="M70.8186 21.5356V5.84541H75.0893V8.16731H75.2418C75.4195 7.68143 75.7004 7.24062 76.0649 6.87575C76.4663 6.44381 76.9539 6.10255 77.4955 5.87443C78.0372 5.64631 78.6207 5.53651 79.2074 5.55227H81.0378V9.69105H78.7355C77.5844 9.69105 76.6845 10.0035 76.0361 10.6285C75.3876 11.2535 75.0672 12.1242 75.0749 13.2407V21.5356H70.8186Z" fill="white"/>
<path d="M81.7301 21.2887C81.3116 20.8813 81.0467 20.3397 80.9811 19.7568C80.9155 19.1739 81.0531 18.5862 81.3704 18.0945C81.6877 17.6028 82.1648 17.2379 82.7198 17.0624C83.2749 16.8869 83.8732 16.9118 84.412 17.1328C84.9508 17.3538 85.3965 17.7571 85.6726 18.2734C85.9487 18.7898 86.0378 19.387 85.9248 19.9624C85.8118 20.5379 85.5037 21.0557 85.0533 21.4269C84.6029 21.7982 84.0384 21.9997 83.4568 21.9969C83.1363 22.0036 82.8179 21.9443 82.521 21.8225C82.2241 21.7007 81.9549 21.5191 81.7301 21.2887Z" fill="white"/>
<path d="M89.9592 19.7044C88.5855 18.1778 87.8996 16.1732 87.9015 13.6907C87.9034 11.2082 88.5893 9.20363 89.9592 7.67698C90.5935 6.94168 91.3797 6.35537 92.2627 5.95925C93.1457 5.56314 94.1039 5.36683 95.0702 5.38411C96.4008 5.3735 97.6976 5.80607 98.7596 6.61471C99.2018 6.97461 99.6016 7.3846 99.951 7.83661H100.104V5.84558H104.374V21.5358H100.104V19.5361H99.951C99.6021 19.9911 99.2023 20.4041 98.7596 20.7667C97.6976 21.5753 96.4008 22.0079 95.0702 21.9973C94.1039 22.0146 93.1457 21.8183 92.2627 21.4221C91.3797 21.026 90.5935 20.4397 89.9592 19.7044ZM93.3924 10.3065C92.6787 11.1289 92.3228 12.2569 92.3247 13.6907C92.3267 15.1245 92.6825 16.2525 93.3924 17.0749C93.7297 17.474 94.1514 17.7918 94.6265 18.0047C95.1017 18.2177 95.6181 18.3205 96.1379 18.3055C96.6765 18.3271 97.2133 18.2295 97.7105 18.0194C98.2077 17.8093 98.6532 17.4918 99.0157 17.0894C99.7505 16.2806 100.117 15.1477 100.115 13.6907C100.113 12.2337 99.74 11.1008 98.9956 10.292C98.6326 9.89021 98.187 9.5732 97.6899 9.36315C97.1929 9.1531 96.6563 9.05507 96.1177 9.07593C95.6013 9.06398 95.0888 9.16823 94.6174 9.3811C94.146 9.59397 93.7275 9.91011 93.3924 10.3065Z" fill="white"/>
<path d="M107.729 21.5354V5.84521H112V21.5354H107.729Z" fill="white"/>
<path d="M8.23637 21.9972C12.7852 21.9972 16.4727 18.2782 16.4727 13.6906C16.4727 9.10302 12.7852 5.38403 8.23637 5.38403C3.68755 5.38403 0 9.10302 0 13.6906C0 18.2782 3.68755 21.9972 8.23637 21.9972Z" fill="white"/>
<path d="M34.3071 12.1524C34.1028 12.1117 33.838 12.0566 33.5128 11.984L32.7185 11.8128C32.5171 11.7722 32.2725 11.7228 31.9876 11.659C31.7558 11.6123 31.527 11.5512 31.3026 11.4761L30.7069 11.2759C30.5271 11.2231 30.3535 11.1511 30.1889 11.0611C30.0621 10.9866 29.94 10.9042 29.8234 10.8144C29.7118 10.7358 29.6217 10.6299 29.5616 10.5067C29.5123 10.3953 29.4868 10.2746 29.4867 10.1526C29.4917 9.97487 29.542 9.80139 29.6327 9.64889C29.7235 9.4964 29.8516 9.37002 30.0047 9.28192C30.4992 9.01035 31.0605 8.88746 31.6221 8.92783C34.0222 8.92783 36.9749 9.47638 38.2008 9.72889V6.03997C36.0296 5.63204 33.8276 5.41259 31.6192 5.38403C29.5855 5.38403 27.9835 5.85035 26.8132 6.78298C25.6429 7.71561 25.0597 8.84076 25.0635 10.1584C25.0635 12.6409 26.6703 14.2305 29.8839 14.927C30.0853 14.9677 30.4163 15.0402 30.8738 15.1418C31.3314 15.2434 31.6681 15.316 31.8811 15.3566C32.0941 15.3972 32.379 15.464 32.7444 15.5569C33.02 15.6237 33.2903 15.711 33.5531 15.8181C33.7344 15.9022 33.9272 15.998 34.1287 16.1083C34.2998 16.192 34.4465 16.319 34.5546 16.4769C34.6374 16.6109 34.6804 16.766 34.6783 16.9239C34.6783 17.9494 33.815 18.4621 32.0883 18.4621C30.9487 18.4621 30.0537 18.1342 29.4033 17.4782C29.1114 17.1909 28.883 16.8448 28.7327 16.4624H24.3009C24.5841 17.4633 25.0496 18.4022 25.6736 19.2313C27.055 21.0772 29.1903 22.0001 32.0797 22.0001C34.2342 22.0001 35.9427 21.498 37.2051 20.4938C38.4675 19.4896 39.0977 18.2996 39.0958 16.9239C39.0958 14.4607 37.4996 12.8702 34.3071 12.1524Z" fill="white"/>
</svg>
