<svg width="40" height="40" viewBox="0 0 40 40" fill="none" xmlns="http://www.w3.org/2000/svg">
<path d="M20 2.5V5H7.5V35H27.5V27.5H30V35C30 35.663 29.7364 36.2987 29.2676 36.7676C28.7987 37.2364 28.163 37.5 27.5 37.5H7.5C6.83696 37.5 6.20126 37.2364 5.73242 36.7676C5.26358 36.2987 5 35.663 5 35V5C5 4.33696 5.26358 3.70126 5.73242 3.23242C6.20126 2.76358 6.83696 2.5 7.5 2.5H20ZM31.4004 2.50293C31.9238 2.50303 32.426 2.70883 32.7998 3.0752L36.9248 7.2002H36.9121C37.2785 7.57401 37.4843 8.07617 37.4844 8.59961C37.4844 9.12311 37.2786 9.62614 36.9121 10L19.4121 27.5H12.5V20.5752L30 3.0752C30.3739 2.70874 30.8769 2.50293 31.4004 2.50293ZM15 21.625V25H18.375L30.1875 13.2002L26.7998 9.8125L15 21.625ZM28.5625 8.0498L31.9502 11.4375L34.7871 8.59961L31.4004 5.21191L28.5625 8.0498Z" fill="#005EE0"/>
</svg>
