<svg width="40" height="40" viewBox="0 0 40 40" fill="none" xmlns="http://www.w3.org/2000/svg">
<path d="M21.835 20H32.5C33.4942 20.0011 34.4474 20.3966 35.1504 21.0996C35.8534 21.8026 36.2489 22.7558 36.25 23.75V27.5C36.2492 28.1628 35.9853 28.7979 35.5166 29.2666C35.0479 29.7353 34.4128 29.9992 33.75 30V35C33.7492 35.6628 33.4853 36.2979 33.0166 36.7666C32.5479 37.2353 31.9128 37.4992 31.25 37.5H27.5C26.8372 37.4992 26.2021 37.2353 25.7334 36.7666C25.2647 36.2979 25.0008 35.6628 25 35V27.5H27.5V35H31.25V27.5H33.75V23.75C33.7497 23.4186 33.6181 23.1006 33.3838 22.8662C33.1494 22.6319 32.8314 22.5003 32.5 22.5H20.665L14.415 15H6.25C5.91857 15.0003 5.60057 15.1319 5.36621 15.3662C5.13186 15.6006 5.0003 15.9186 5 16.25V23.75H7.5V35H12.5V26.25H15V35C14.9992 35.6628 14.7353 36.2979 14.2666 36.7666C13.7979 37.2353 13.1628 37.4992 12.5 37.5H7.5C6.83719 37.4992 6.20207 37.2353 5.7334 36.7666C5.26472 36.2979 5.00076 35.6628 5 35V26.25C4.33719 26.2492 3.70207 25.9853 3.2334 25.5166C2.76472 25.0479 2.50076 24.4128 2.5 23.75V16.25C2.50109 15.2558 2.89658 14.3026 3.59961 13.5996C4.30263 12.8966 5.25577 12.5011 6.25 12.5H15.585L21.835 20ZM28.5215 10.084C29.37 9.9152 30.2495 10.002 31.0488 10.333C31.8482 10.6641 32.532 11.2249 33.0127 11.9443C33.4934 12.6638 33.75 13.5097 33.75 14.375C33.7486 15.5349 33.287 16.6466 32.4668 17.4668C31.6466 18.287 30.5349 18.7486 29.375 18.75C28.5097 18.75 27.6638 18.4934 26.9443 18.0127C26.2249 17.532 25.6641 16.8482 25.333 16.0488C25.002 15.2495 24.9152 14.37 25.084 13.5215C25.2528 12.6728 25.6694 11.8931 26.2812 11.2812C26.8931 10.6694 27.6728 10.2528 28.5215 10.084ZM29.375 12.5C29.0042 12.5 28.6413 12.6104 28.333 12.8164C28.0249 13.0224 27.7844 13.3148 27.6426 13.6572C27.5007 13.9998 27.4638 14.3775 27.5361 14.7412C27.6085 15.1048 27.7867 15.439 28.0488 15.7012C28.3109 15.9633 28.6452 16.1415 29.0088 16.2139C29.3725 16.2862 29.7502 16.2493 30.0928 16.1074C30.4352 15.9656 30.7276 15.7251 30.9336 15.417C31.1396 15.1087 31.25 14.7458 31.25 14.375C31.2494 13.8779 31.0517 13.4013 30.7002 13.0498C30.3487 12.6983 29.8721 12.5006 29.375 12.5ZM9.02441 1.3457C9.99425 1.15279 10.9995 1.25249 11.9131 1.63086C12.8266 2.00924 13.6078 2.64962 14.1572 3.47168C14.7066 4.29392 15 5.26109 15 6.25C14.9986 7.57566 14.4716 8.8468 13.5342 9.78418C12.5968 10.7216 11.3257 11.2486 10 11.25C9.01109 11.25 8.04392 10.9566 7.22168 10.4072C6.39962 9.85783 5.75924 9.07657 5.38086 8.16309C5.00249 7.24951 4.90279 6.24425 5.0957 5.27441C5.28864 4.30453 5.7656 3.41409 6.46484 2.71484C7.16409 2.0156 8.05453 1.53864 9.02441 1.3457ZM10 3.75C9.5057 3.75 9.02237 3.89636 8.61133 4.1709C8.2003 4.44554 7.87967 4.83629 7.69043 5.29297C7.50127 5.74964 7.45151 6.25249 7.54785 6.7373C7.64431 7.22226 7.88279 7.66795 8.23242 8.01758C8.58205 8.36721 9.02774 8.60569 9.5127 8.70215C9.99751 8.79849 10.5004 8.74873 10.957 8.55957C11.4137 8.37033 11.8045 8.0497 12.0791 7.63867C12.3536 7.22763 12.5 6.7443 12.5 6.25C12.4992 5.58719 12.2353 4.95207 11.7666 4.4834C11.2979 4.01472 10.6628 3.75076 10 3.75Z" fill="#005EE0"/>
</svg>
