<svg width="40" height="40" viewBox="0 0 40 40" fill="none" xmlns="http://www.w3.org/2000/svg">
<path d="M32.5 25.126C33.2965 25.2882 34.0359 25.6064 34.6914 26.041L36.5537 24.1787L38.3213 25.9463L36.459 27.8086C36.8935 28.4641 37.2116 29.2035 37.374 30H40V32.5H37.374C37.2118 33.2965 36.8936 34.0359 36.459 34.6914L38.3213 36.5537L36.5537 38.3213L34.6914 36.459C34.0359 36.8935 33.2965 37.2116 32.5 37.374V40H30V37.374C29.2035 37.2118 28.4641 36.8936 27.8086 36.459L25.9463 38.3213L24.1787 36.5537L26.041 34.6914C25.6065 34.0359 25.2884 33.2965 25.126 32.5H22.5V30H25.126C25.2882 29.2035 25.6064 28.4641 26.041 27.8086L24.1787 25.9463L25.9463 24.1787L27.8086 26.041C28.4641 25.6065 29.2035 25.2884 30 25.126V22.5H32.5V25.126ZM31.25 27.5C29.1821 27.5 27.5 29.1821 27.5 31.25C27.5 33.3179 29.1821 35 31.25 35C33.3179 35 35 33.3179 35 31.25C35 29.1821 33.3179 27.5 31.25 27.5ZM5 28.75H16.25V31.25H5C3.6215 31.25 2.5 30.1285 2.5 28.75V13.75H5V28.75ZM10 23.75H21.25V26.25H10C8.61925 26.25 7.5 25.1308 7.5 23.75V8.75H10V23.75ZM25 2.5C26.3808 2.5 27.5 3.61925 27.5 5V18.75C27.5 20.1308 26.3808 21.25 25 21.25H15C13.6193 21.25 12.5 20.1308 12.5 18.75V5C12.5 3.61925 13.6193 2.5 15 2.5H25ZM15 18.75H25V5H15V18.75Z" fill="#005EE0"/>
</svg>
